<svg xmlns="http://www.w3.org/2000/svg" width="900" height="480" viewBox="0 0 900 480">
<rect width="100%" height="100%" fill="#fff"/>
<style>text{font-family:Arial,sans-serif;fill:#202124}.title{font-size:24px;font-weight:700}.sub{font-size:13px;fill:#5f6368}.label{font-size:12px}.small{font-size:10px}.value{font-size:12px;font-weight:700}.grid{stroke:#e6e8eb;stroke-width:1}</style>
<text class="title" x="38" y="36">C2 D4 overall accuracy</text>
<text class="sub" x="38" y="58">25 scenes × 5 seeds = 125 calls</text>
<line class="grid" x1="80" y1="380.0" x2="860" y2="380.0"/>
<text class="label" x="44" y="384.0">0%</text>
<line class="grid" x1="80" y1="324.0" x2="860" y2="324.0"/>
<text class="label" x="44" y="328.0">20%</text>
<line class="grid" x1="80" y1="268.0" x2="860" y2="268.0"/>
<text class="label" x="44" y="272.0">40%</text>
<line class="grid" x1="80" y1="212.0" x2="860" y2="212.0"/>
<text class="label" x="44" y="216.0">60%</text>
<line class="grid" x1="80" y1="156.0" x2="860" y2="156.0"/>
<text class="label" x="44" y="160.0">80%</text>
<line class="grid" x1="80" y1="100.0" x2="860" y2="100.0"/>
<text class="label" x="44" y="104.0">100%</text>
<rect x="190.66666666666669" y="245.6" width="72" height="134.4" rx="5" fill="#f9ab00"/>
<text class="value" x="226.66666666666669" y="237.6" text-anchor="middle">48.0%</text>
<text class="label" x="226.66666666666669" y="404" text-anchor="middle">Reason</text>
<rect x="434.00000000000006" y="120.16000000000003" width="72" height="259.84" rx="5" fill="#1a73e8"/>
<text class="value" x="470.00000000000006" y="112.16000000000003" text-anchor="middle">92.8%</text>
<text class="label" x="470.00000000000006" y="404" text-anchor="middle">Blocker</text>
<rect x="677.3333333333334" y="245.6" width="72" height="134.4" rx="5" fill="#9334e6"/>
<text class="value" x="713.3333333333334" y="237.6" text-anchor="middle">48.0%</text>
<text class="label" x="713.3333333333334" y="404" text-anchor="middle">Joint</text>
</svg>